<svg width="512" height="512" viewBox="0 0 512 512" fill="none" xmlns="http://www.w3.org/2000/svg" role="img" aria-labelledby="title desc">
  <title id="title">Drift transparent icon</title>
  <desc id="desc">A minimal transparent Drift icon: amber rail and lowercase d.</desc>
  <rect x="96" y="128" width="34" height="256" rx="3" fill="#f59e0b"/>
  <path d="M306 208c37.555 0 68 30.445 68 68v36c0 37.555-30.445 68-68 68h-18c-37.555 0-68-30.445-68-68v-36c0-37.555 30.445-68 68-68h18Zm0 42h-18c-14.36 0-26 11.64-26 26v36c0 14.36 11.64 26 26 26h18c14.36 0 26-11.64 26-26v-36c0-14.36-11.64-26-26-26Z" fill="#f5f5f4"/>
  <rect x="332" y="128" width="42" height="252" rx="21" fill="#f5f5f4"/>
</svg>
